# Blender v2.73 (sub 0) OBJ File: 'car.blend'
# www.blender.org
mtllib car.mtl
o car
v 1.000000 0.300000 -1.000000
v 1.000000 0.300000 0.900000
v -1.000000 0.300000 0.900000
v -1.000000 0.300000 -1.000000
v 0.800000 1.300000 -0.799999
v 0.799999 1.300000 0.500001
v -0.800000 1.300000 0.500000
v -0.800000 1.300000 -0.800000
v 1.000000 0.800000 -1.000000
v 1.000000 0.800000 0.800000
v -1.000000 0.800000 0.800000
v -1.000000 0.800000 -1.000000
v 1.000000 0.300000 2.000000
v -1.000000 0.300000 2.000000
v 0.999999 0.700000 2.000000
v -1.000000 0.700000 2.000000
v 1.000000 0.300000 -1.400000
v -1.000000 0.300000 -1.400000
v 1.000000 0.800000 -1.400000
v -1.000000 0.800000 -1.400000
v 0.900000 0.300000 -1.300000
v -0.900000 0.300000 -1.300000
v -0.900000 0.300000 0.900000
v 0.900000 0.300000 0.900000
v -0.900000 0.241473 0.905764
v 0.900000 0.241473 0.905764
v -0.900000 0.185195 0.922836
v 0.900000 0.185195 0.922836
v -0.900000 0.133329 0.950559
v 0.900000 0.133329 0.950559
v -0.900000 0.087868 0.987868
v 0.900000 0.087868 0.987868
v -0.900000 0.050559 1.033329
v 0.900000 0.050559 1.033329
v -0.900000 0.022836 1.085195
v 0.900000 0.022836 1.085195
v -0.900000 0.005764 1.141473
v 0.900000 0.005764 1.141473
v -0.900000 0.000000 1.200000
v 0.900000 0.000000 1.200000
v -0.900000 0.005764 1.258527
v 0.900000 0.005764 1.258527
v -0.900000 0.022836 1.314805
v 0.900000 0.022836 1.314805
v -0.900000 0.050559 1.366671
v 0.900000 0.050559 1.366671
v -0.900000 0.087868 1.412132
v 0.900000 0.087868 1.412132
v -0.900000 0.133329 1.449441
v 0.900000 0.133329 1.449441
v -0.900000 0.185195 1.477164
v 0.900000 0.185195 1.477164
v -0.900000 0.241473 1.494236
v 0.900000 0.241473 1.494236
v -0.900000 0.300000 1.500000
v 0.900000 0.300000 1.500000
v -0.900000 0.358527 1.494236
v 0.900000 0.358527 1.494236
v -0.900000 0.414805 1.477164
v 0.900000 0.414805 1.477164
v -0.900000 0.466671 1.449441
v 0.900000 0.466671 1.449441
v -0.900000 0.512132 1.412132
v 0.900000 0.512132 1.412132
v -0.900000 0.549441 1.366671
v 0.900000 0.549441 1.366671
v -0.900000 0.577164 1.314805
v 0.900000 0.577164 1.314805
v -0.900000 0.594236 1.258527
v 0.900000 0.594236 1.258527
v -0.900000 0.600000 1.200000
v 0.900000 0.600000 1.200000
v -0.900000 0.594236 1.141472
v 0.900000 0.594235 1.141472
v -0.900000 0.577164 1.085195
v 0.900000 0.577164 1.085195
v -0.900000 0.549441 1.033329
v 0.900000 0.549441 1.033329
v -0.900000 0.512132 0.987868
v 0.900000 0.512132 0.987868
v -0.900000 0.466671 0.950559
v 0.900000 0.466671 0.950559
v -0.900000 0.414805 0.922836
v 0.900000 0.414805 0.922836
v -0.900000 0.358527 0.905764
v 0.900000 0.358527 0.905764
v -0.900000 0.241473 -1.294236
v 0.900000 0.241473 -1.294236
v -0.900000 0.185195 -1.277164
v 0.900000 0.185195 -1.277164
v -0.900000 0.133329 -1.249441
v 0.900000 0.133329 -1.249441
v -0.900000 0.087868 -1.212132
v 0.900000 0.087868 -1.212132
v -0.900000 0.050559 -1.166671
v 0.900000 0.050559 -1.166671
v -0.900000 0.022836 -1.114805
v 0.900000 0.022836 -1.114805
v -0.900000 0.005764 -1.058527
v 0.900000 0.005764 -1.058527
v -0.900000 0.000000 -1.000000
v 0.900000 0.000000 -1.000000
v -0.900000 0.005764 -0.941473
v 0.900000 0.005764 -0.941473
v -0.900000 0.022836 -0.885195
v 0.900000 0.022836 -0.885195
v -0.900000 0.050559 -0.833329
v 0.900000 0.050559 -0.833329
v -0.900000 0.087868 -0.787868
v 0.900000 0.087868 -0.787868
v -0.900000 0.133329 -0.750559
v 0.900000 0.133329 -0.750559
v -0.900000 0.185195 -0.722836
v 0.900000 0.185195 -0.722836
v -0.900000 0.241473 -0.705765
v 0.900000 0.241473 -0.705765
v -0.900000 0.300000 -0.700000
v 0.900000 0.300000 -0.700000
v -0.900000 0.358527 -0.705765
v 0.900000 0.358527 -0.705765
v -0.900000 0.414805 -0.722836
v 0.900000 0.414805 -0.722836
v -0.900000 0.466671 -0.750559
v 0.900000 0.466671 -0.750559
v -0.900000 0.512132 -0.787868
v 0.900000 0.512132 -0.787868
v -0.900000 0.549441 -0.833329
v 0.900000 0.549441 -0.833329
v -0.900000 0.577164 -0.885195
v 0.900000 0.577164 -0.885195
v -0.900000 0.594236 -0.941473
v 0.900000 0.594236 -0.941473
v -0.900000 0.600000 -1.000000
v 0.900000 0.600000 -1.000000
v -0.900000 0.594236 -1.058527
v 0.900000 0.594235 -1.058527
v -0.900000 0.577164 -1.114805
v 0.900000 0.577164 -1.114805
v -0.900000 0.549441 -1.166672
v 0.900000 0.549441 -1.166672
v -0.900000 0.512132 -1.212132
v 0.900000 0.512132 -1.212132
v -0.900000 0.466671 -1.249441
v 0.900000 0.466671 -1.249441
v -0.900000 0.414805 -1.277164
v 0.900000 0.414805 -1.277164
v -0.900000 0.358527 -1.294236
v 0.900000 0.358527 -1.294236
vt 0.405078 0.270128
vt 0.148674 0.270129
vt 0.148674 0.000229
vt 0.405078 0.000229
vt 0.243138 0.524709
vt 0.027219 0.524709
vt 0.027219 0.349275
vt 0.243138 0.349275
vt 0.675435 0.846918
vt 0.648445 0.919590
vt 0.473011 0.919591
vt 0.432526 0.846918
vt 0.270128 0.270586
vt 0.000229 0.270586
vt 0.702882 0.597687
vt 0.743367 0.525014
vt 0.918801 0.525014
vt 0.945791 0.597687
vt 0.580513 0.000229
vt 0.580513 0.270128
vt 0.526533 0.270128
vt 0.526533 0.000229
vt 0.270128 0.597382
vt 0.000229 0.597382
vt 0.689387 0.665162
vt 0.945791 0.665162
vt 0.810843 0.487067
vt 0.540944 0.487067
vt 0.540944 0.324566
vt 0.810843 0.324566
vt 0.675435 0.779443
vt 0.419031 0.779443
vt 0.810843 0.270586
vt 0.540944 0.270586
vt 0.540942 0.665162
vt 0.540942 0.611182
vt 0.270586 0.833423
vt 0.270586 0.779443
vt 0.000229 0.270129
vt 0.000229 0.000229
vt 0.459058 0.270128
vt 0.459058 0.000229
vt 0.999771 0.597687
vt 0.999771 0.665162
vt 0.729415 0.779443
vt 0.729415 0.846918
vt 0.270586 0.691683
vt 0.540484 0.691681
vt 0.540484 0.699618
vt 0.270586 0.699619
vt 0.270587 0.461064
vt 0.540485 0.461060
vt 0.540485 0.468996
vt 0.270588 0.469001
vt 0.270586 0.683746
vt 0.540484 0.683745
vt 0.540485 0.476932
vt 0.270588 0.476937
vt 0.270586 0.675810
vt 0.540484 0.675808
vt 0.540485 0.484869
vt 0.270588 0.484874
vt 0.270586 0.667873
vt 0.540484 0.667872
vt 0.540485 0.492805
vt 0.270588 0.492811
vt 0.270586 0.659936
vt 0.540484 0.659936
vt 0.540486 0.500742
vt 0.270588 0.500747
vt 0.270586 0.652000
vt 0.540484 0.651999
vt 0.540486 0.508678
vt 0.270588 0.508684
vt 0.270586 0.644063
vt 0.540484 0.644063
vt 0.540486 0.516614
vt 0.270588 0.516620
vt 0.270586 0.636127
vt 0.540484 0.636126
vt 0.540486 0.524551
vt 0.270589 0.524557
vt 0.270586 0.628190
vt 0.540484 0.628190
vt 0.270586 0.270586
vt 0.540484 0.270586
vt 0.540484 0.278522
vt 0.270586 0.278523
vt 0.270586 0.620254
vt 0.540484 0.620254
vt 0.540484 0.286459
vt 0.270586 0.286459
vt 0.270586 0.612317
vt 0.540484 0.612317
vt 0.540484 0.294395
vt 0.270586 0.294396
vt 0.270586 0.604380
vt 0.540484 0.604381
vt 0.540484 0.302332
vt 0.270586 0.302332
vt 0.270586 0.596444
vt 0.540484 0.596444
vt 0.540484 0.310268
vt 0.270586 0.310269
vt 0.270586 0.588507
vt 0.540484 0.588508
vt 0.540484 0.318204
vt 0.270586 0.318206
vt 0.270586 0.580571
vt 0.540484 0.580572
vt 0.540484 0.326141
vt 0.270586 0.326142
vt 0.270586 0.572634
vt 0.540484 0.572635
vt 0.540484 0.334077
vt 0.270586 0.334079
vt 0.270586 0.564697
vt 0.540484 0.564699
vt 0.540484 0.342014
vt 0.270586 0.342015
vt 0.270586 0.556761
vt 0.540484 0.556762
vt 0.540484 0.349950
vt 0.270586 0.349952
vt 0.270586 0.548824
vt 0.540484 0.548826
vt 0.540484 0.357886
vt 0.270586 0.357889
vt 0.270586 0.540888
vt 0.540484 0.540890
vt 0.540484 0.365823
vt 0.270586 0.365825
vt 0.270586 0.532951
vt 0.540484 0.532953
vt 0.540484 0.373759
vt 0.270586 0.373762
vt 0.270586 0.525014
vt 0.540484 0.525017
vt 0.540484 0.381696
vt 0.270586 0.381698
vt 0.270587 0.771049
vt 0.540484 0.771045
vt 0.540484 0.778982
vt 0.270587 0.778985
vt 0.540484 0.389632
vt 0.270586 0.389635
vt 0.270587 0.763112
vt 0.540484 0.763109
vt 0.540484 0.397568
vt 0.270587 0.397571
vt 0.270587 0.755176
vt 0.540484 0.755172
vt 0.540484 0.405505
vt 0.270587 0.405508
vt 0.270587 0.747239
vt 0.540484 0.747236
vt 0.540484 0.413441
vt 0.270587 0.413445
vt 0.270586 0.739302
vt 0.540484 0.739300
vt 0.540484 0.421378
vt 0.270587 0.421381
vt 0.582519 0.052271
vt 0.580971 0.044487
vt 0.580971 0.036550
vt 0.582519 0.028767
vt 0.585556 0.021434
vt 0.589965 0.014835
vt 0.595577 0.009223
vt 0.602176 0.004814
vt 0.609508 0.001777
vt 0.617292 0.000229
vt 0.625229 0.000229
vt 0.633013 0.001777
vt 0.640345 0.004814
vt 0.646944 0.009223
vt 0.652556 0.014835
vt 0.656965 0.021434
vt 0.660002 0.028767
vt 0.661551 0.036551
vt 0.661551 0.044487
vt 0.660002 0.052271
vt 0.656965 0.059603
vt 0.652556 0.066202
vt 0.646944 0.071814
vt 0.640345 0.076223
vt 0.633012 0.079261
vt 0.625228 0.080809
vt 0.617292 0.080809
vt 0.609508 0.079260
vt 0.602176 0.076223
vt 0.595577 0.071814
vt 0.589965 0.066202
vt 0.585556 0.059603
vt 0.270586 0.731366
vt 0.540484 0.731363
vt 0.540484 0.429314
vt 0.270587 0.429318
vt 0.540484 0.707554
vt 0.270586 0.707556
vt 0.270586 0.723429
vt 0.540484 0.723427
vt 0.540485 0.437250
vt 0.270587 0.437254
vt 0.540484 0.715490
vt 0.270586 0.715493
vt 0.540485 0.445187
vt 0.270587 0.445191
vt 0.079260 0.649882
vt 0.076223 0.657214
vt 0.071814 0.663813
vt 0.066202 0.669425
vt 0.059603 0.673834
vt 0.052271 0.676871
vt 0.044487 0.678420
vt 0.036551 0.678420
vt 0.028767 0.676871
vt 0.021434 0.673834
vt 0.014835 0.669425
vt 0.009223 0.663813
vt 0.004814 0.657214
vt 0.001777 0.649882
vt 0.000229 0.642098
vt 0.000229 0.634161
vt 0.001777 0.626377
vt 0.004814 0.619045
vt 0.009223 0.612446
vt 0.014835 0.606834
vt 0.021434 0.602425
vt 0.028767 0.599388
vt 0.036550 0.597840
vt 0.044487 0.597840
vt 0.052271 0.599388
vt 0.059603 0.602425
vt 0.066202 0.606834
vt 0.071814 0.612446
vt 0.076223 0.619045
vt 0.079260 0.626377
vt 0.080809 0.634161
vt 0.080809 0.642098
vt 0.270587 0.453128
vt 0.540485 0.453123
vt 0.646944 0.090261
vt 0.652556 0.095873
vt 0.656965 0.102472
vt 0.660002 0.109804
vt 0.661551 0.117588
vt 0.661551 0.125525
vt 0.660002 0.133308
vt 0.656965 0.140641
vt 0.652556 0.147240
vt 0.646944 0.152852
vt 0.640345 0.157261
vt 0.633013 0.160298
vt 0.625229 0.161846
vt 0.617292 0.161846
vt 0.609508 0.160298
vt 0.602176 0.157261
vt 0.595577 0.152852
vt 0.589965 0.147240
vt 0.585556 0.140641
vt 0.582519 0.133308
vt 0.580971 0.125524
vt 0.580971 0.117588
vt 0.582519 0.109804
vt 0.585556 0.102472
vt 0.589965 0.095873
vt 0.595577 0.090261
vt 0.602176 0.085852
vt 0.609508 0.082815
vt 0.617292 0.081266
vt 0.625229 0.081266
vt 0.633013 0.082815
vt 0.640345 0.085852
vt 0.652556 0.176911
vt 0.656965 0.183509
vt 0.660002 0.190842
vt 0.661551 0.198626
vt 0.661551 0.206562
vt 0.660002 0.214346
vt 0.656965 0.221678
vt 0.652556 0.228277
vt 0.646944 0.233889
vt 0.640345 0.238298
vt 0.633013 0.241336
vt 0.625229 0.242884
vt 0.617292 0.242884
vt 0.609508 0.241336
vt 0.602176 0.238298
vt 0.595577 0.233889
vt 0.589965 0.228277
vt 0.585556 0.221678
vt 0.582519 0.214346
vt 0.580971 0.206562
vt 0.580971 0.198626
vt 0.582519 0.190842
vt 0.585556 0.183509
vt 0.589965 0.176910
vt 0.595577 0.171298
vt 0.602176 0.166889
vt 0.609508 0.163852
vt 0.617292 0.162304
vt 0.625229 0.162304
vt 0.633013 0.163852
vt 0.640345 0.166889
vt 0.646944 0.171299
vn 0.000000 -1.000000 -0.000000
vn 0.000000 1.000000 0.000000
vn 0.928500 0.371400 0.000000
vn -0.000000 0.514500 0.857500
vn -0.928500 0.371400 -0.000000
vn 0.000000 0.371400 -0.928500
vn -1.000000 -0.000000 -0.000000
vn -0.000000 0.996500 0.083000
vn 1.000000 0.000000 0.000000
vn -0.000000 -0.000000 1.000000
vn 0.000000 0.000000 -1.000000
vn 0.000000 0.471400 -0.881900
vn 0.000000 -0.098000 -0.995200
vn 0.000000 0.634400 -0.773000
vn -0.000000 -0.290300 -0.956900
vn 0.000000 0.773000 -0.634400
vn -0.000000 -0.471400 -0.881900
vn 0.000000 0.881900 -0.471400
vn -0.000000 -0.634400 -0.773000
vn 0.000000 0.956900 -0.290300
vn -0.000000 -0.773000 -0.634400
vn 0.000000 0.995200 -0.098000
vn -0.000000 -0.881900 -0.471400
vn 0.000000 0.995200 0.098000
vn -0.000000 -0.956900 -0.290300
vn 0.000000 0.956900 0.290300
vn -0.000000 -0.995200 -0.098000
vn 0.000000 0.881900 0.471400
vn -0.000000 -0.995200 0.098000
vn 0.000000 0.773000 0.634400
vn -0.000000 -0.956900 0.290300
vn 0.000000 0.634400 0.773000
vn -0.000000 -0.881900 0.471400
vn 0.000000 0.471400 0.881900
vn -0.000000 -0.773000 0.634400
vn 0.000000 0.290300 0.956900
vn -0.000000 -0.634400 0.773000
vn -0.000000 0.098000 0.995200
vn -0.000000 -0.471400 0.881900
vn -0.000000 -0.098000 0.995200
vn 0.000000 -0.290300 0.956900
vn 0.000000 0.290300 -0.956900
vn -0.000000 0.098000 -0.995200
usemtl Material
s off
f 1/1/1 2/2/1 3/3/1 4/4/1
f 5/5/2 8/6/2 7/7/2 6/8/2
f 9/9/3 5/10/3 6/11/3 10/12/3
f 10/13/4 6/8/4 7/7/4 11/14/4
f 11/15/5 7/16/5 8/17/5 12/18/5
f 12/19/2 9/20/2 19/21/2 20/22/2
f 5/5/6 9/23/6 12/24/6 8/6/6
f 3/25/7 11/15/7 12/18/7 4/26/7
f 10/27/8 11/28/8 16/29/8 15/30/8
f 1/31/9 9/9/9 10/12/9 2/32/9
f 13/33/10 15/30/10 16/29/10 14/34/10
f 11/15/7 3/25/7 14/35/7 16/36/7
f 2/32/9 10/12/9 15/37/9 13/38/9
f 3/3/1 2/2/1 13/39/1 14/40/1
f 19/21/11 17/41/11 18/42/11 20/22/11
f 4/26/7 12/18/7 20/43/7 18/44/7
f 9/9/9 1/31/9 17/45/9 19/46/9
f 1/1/1 4/4/1 18/42/1 17/41/1
f 143/47/12 144/48/12 146/49/12 145/50/12
f 23/51/13 24/52/13 26/53/13 25/54/13
f 141/55/14 142/56/14 144/48/14 143/47/14
f 25/54/15 26/53/15 28/57/15 27/58/15
f 139/59/16 140/60/16 142/56/16 141/55/16
f 27/58/17 28/57/17 30/61/17 29/62/17
f 137/63/18 138/64/18 140/60/18 139/59/18
f 29/62/19 30/61/19 32/65/19 31/66/19
f 135/67/20 136/68/20 138/64/20 137/63/20
f 31/66/21 32/65/21 34/69/21 33/70/21
f 133/71/22 134/72/22 136/68/22 135/67/22
f 33/70/23 34/69/23 36/73/23 35/74/23
f 131/75/24 132/76/24 134/72/24 133/71/24
f 35/74/25 36/73/25 38/77/25 37/78/25
f 129/79/26 130/80/26 132/76/26 131/75/26
f 37/78/27 38/77/27 40/81/27 39/82/27
f 127/83/28 128/84/28 130/80/28 129/79/28
f 39/85/29 40/86/29 42/87/29 41/88/29
f 125/89/30 126/90/30 128/84/30 127/83/30
f 41/88/31 42/87/31 44/91/31 43/92/31
f 123/93/32 124/94/32 126/90/32 125/89/32
f 43/92/33 44/91/33 46/95/33 45/96/33
f 121/97/34 122/98/34 124/94/34 123/93/34
f 45/96/35 46/95/35 48/99/35 47/100/35
f 119/101/36 120/102/36 122/98/36 121/97/36
f 47/100/37 48/99/37 50/103/37 49/104/37
f 117/105/38 118/106/38 120/102/38 119/101/38
f 49/104/39 50/103/39 52/107/39 51/108/39
f 115/109/40 116/110/40 118/106/40 117/105/40
f 51/108/41 52/107/41 54/111/41 53/112/41
f 113/113/41 114/114/41 116/110/41 115/109/41
f 53/112/40 54/111/40 56/115/40 55/116/40
f 111/117/39 112/118/39 114/114/39 113/113/39
f 55/116/38 56/115/38 58/119/38 57/120/38
f 109/121/37 110/122/37 112/118/37 111/117/37
f 57/120/36 58/119/36 60/123/36 59/124/36
f 107/125/35 108/126/35 110/122/35 109/121/35
f 59/124/34 60/123/34 62/127/34 61/128/34
f 105/129/33 106/130/33 108/126/33 107/125/33
f 61/128/32 62/127/32 64/131/32 63/132/32
f 103/133/31 104/134/31 106/130/31 105/129/31
f 63/132/30 64/131/30 66/135/30 65/136/30
f 101/137/29 102/138/29 104/134/29 103/133/29
f 65/136/28 66/135/28 68/139/28 67/140/28
f 99/141/27 100/142/27 102/143/27 101/144/27
f 67/140/26 68/139/26 70/145/26 69/146/26
f 97/147/25 98/148/25 100/142/25 99/141/25
f 69/146/24 70/145/24 72/149/24 71/150/24
f 95/151/23 96/152/23 98/148/23 97/147/23
f 71/150/22 72/149/22 74/153/22 73/154/22
f 93/155/21 94/156/21 96/152/21 95/151/21
f 73/154/20 74/153/20 76/157/20 75/158/20
f 91/159/19 92/160/19 94/156/19 93/155/19
f 75/158/18 76/157/18 78/161/18 77/162/18
f 22/163/7 87/164/7 89/165/7 91/166/7 93/167/7 95/168/7 97/169/7 99/170/7 101/171/7 103/172/7 105/173/7 107/174/7 109/175/7 111/176/7 113/177/7 115/178/7 117/179/7 119/180/7 121/181/7 123/182/7 125/183/7 127/184/7 129/185/7 131/186/7 133/187/7 135/188/7 137/189/7 139/190/7 141/191/7 143/192/7 145/193/7 147/194/7
f 89/195/17 90/196/17 92/160/17 91/159/17
f 77/162/16 78/161/16 80/197/16 79/198/16
f 145/50/42 146/49/42 148/199/42 147/200/42
f 87/201/15 88/202/15 90/196/15 89/195/15
f 79/198/14 80/197/14 82/203/14 81/204/14
f 147/200/43 148/199/43 21/205/43 22/206/43
f 22/206/13 21/205/13 88/202/13 87/201/13
f 81/204/12 82/203/12 84/207/12 83/208/12
f 26/209/9 24/210/9 86/211/9 84/212/9 82/213/9 80/214/9 78/215/9 76/216/9 74/217/9 72/218/9 70/219/9 68/220/9 66/221/9 64/222/9 62/223/9 60/224/9 58/225/9 56/226/9 54/227/9 52/228/9 50/229/9 48/230/9 46/231/9 44/232/9 42/233/9 40/234/9 38/235/9 36/236/9 34/237/9 32/238/9 30/239/9 28/240/9
f 85/241/43 86/242/43 24/52/43 23/51/43
f 83/208/42 84/207/42 86/242/42 85/241/42
f 88/243/9 21/244/9 148/245/9 146/246/9 144/247/9 142/248/9 140/249/9 138/250/9 136/251/9 134/252/9 132/253/9 130/254/9 128/255/9 126/256/9 124/257/9 122/258/9 120/259/9 118/260/9 116/261/9 114/262/9 112/263/9 110/264/9 108/265/9 106/266/9 104/267/9 102/268/9 100/269/9 98/270/9 96/271/9 94/272/9 92/273/9 90/274/9
f 23/275/7 25/276/7 27/277/7 29/278/7 31/279/7 33/280/7 35/281/7 37/282/7 39/283/7 41/284/7 43/285/7 45/286/7 47/287/7 49/288/7 51/289/7 53/290/7 55/291/7 57/292/7 59/293/7 61/294/7 63/295/7 65/296/7 67/297/7 69/298/7 71/299/7 73/300/7 75/301/7 77/302/7 79/303/7 81/304/7 83/305/7 85/306/7
