# Blender v2.79 (sub 0) OBJ File: 'DesertJump.blend'
# www.blender.org
mtllib desertjump.mtl
o Plane
v -1.341939 -1.199435 5.000000
v -1.341939 -1.199435 7.000000
v -3.193479 -1.955610 7.000000
v -3.193479 -1.955610 5.000000
v -2.098114 0.652105 5.000000
v -2.098114 0.652105 7.000000
v -3.949654 -0.104071 7.000000
v -3.949654 -0.104071 5.000000
v -0.853760 -0.723676 5.000000
v -0.853760 -0.723676 7.000000
v -2.572243 -1.746816 7.000000
v -2.572243 -1.746816 5.000000
v -1.876899 0.994807 5.000000
v -1.876899 0.994807 7.000000
v -3.595383 -0.028332 7.000000
v -3.595383 -0.028332 5.000000
v -0.591798 -0.901664 -1.000000
v -0.591798 -0.901664 1.000000
v -2.130257 -2.179610 1.000000
v -2.130256 -2.179610 -1.000000
v -1.869743 0.636795 -1.000000
v -1.869744 0.636795 1.000000
v -3.408202 -0.641151 1.000000
v -3.408202 -0.641151 -1.000000
v -0.608508 -1.023901 -4.000000
v -0.608509 -1.023901 -2.000000
v -2.252493 -2.162898 -2.000000
v -2.252493 -2.162898 -4.000000
v -1.747506 0.620084 -4.000000
v -1.747506 0.620084 -2.000000
v -3.391490 -0.518914 -2.000000
v -3.391490 -0.518914 -4.000000
v -0.635809 -1.144217 -7.000000
v -0.635810 -1.144217 -5.000000
v -2.372808 -2.135597 -5.000000
v -2.372808 -2.135597 -7.000000
v -1.627190 0.592782 -7.000000
v -1.627190 0.592782 -5.000000
v -3.364189 -0.398598 -5.000000
v -3.364189 -0.398598 -7.000000
v -0.585804 -0.778435 2.000000
v -0.585804 -0.778435 4.000000
v -2.007028 -2.185604 4.000000
v -2.007028 -2.185603 2.000000
v -1.992973 0.642789 2.000000
v -1.992973 0.642789 4.000000
v -3.414197 -0.764380 4.000000
v -3.414196 -0.764380 2.000000
v -0.443087 -0.262448 5.000000
v -0.443088 -0.262448 7.000000
v -1.864312 -1.669617 7.000000
v -1.864311 -1.669616 5.000000
v -1.850256 1.158776 5.000000
v -1.850256 1.158776 7.000000
v -3.271480 -0.248393 7.000000
v -3.271480 -0.248392 5.000000
v 0.673494 -1.261695 -5.000000
v 0.673494 -1.261695 -7.000000
v 2.490288 -2.097913 -7.000000
v 2.490288 -2.097913 -5.000000
v 1.509712 0.555098 -5.000000
v 1.509712 0.555098 -7.000000
v 3.326506 -0.281120 -7.000000
v 3.326506 -0.281120 -5.000000
v 0.721273 -1.375442 -2.000000
v 0.721273 -1.375442 -4.000000
v 2.604034 -2.050134 -4.000000
v 2.604034 -2.050134 -2.000000
v 1.395965 0.507319 -2.000000
v 1.395965 0.507319 -4.000000
v 3.278727 -0.167373 -4.000000
v 3.278727 -0.167373 -2.000000
v 0.921180 -1.885762 7.000000
v 0.921180 -1.885762 5.000000
v 2.914411 -2.050170 5.000000
v 2.914411 -2.050170 7.000000
v 1.085589 0.107469 7.000000
v 1.085589 0.107469 5.000000
v 3.078820 -0.056939 5.000000
v 3.078820 -0.056939 7.000000
v 0.845589 -1.698283 4.000000
v 0.845589 -1.698283 2.000000
v 2.816906 -2.035787 2.000000
v 2.816906 -2.035787 4.000000
v 1.183094 0.273034 4.000000
v 1.183094 0.273034 2.000000
v 3.154411 -0.064470 2.000000
v 3.154411 -0.064470 4.000000
v 0.778784 -1.484592 1.000000
v 0.778784 -1.484592 -1.000000
v 2.713184 -1.992623 -1.000000
v 2.713184 -1.992623 1.000000
v 1.286816 0.449808 1.000000
v 1.286816 0.449808 -1.000000
v 3.221216 -0.058223 -1.000000
v 3.221216 -0.058223 1.000000
v 10.000000 0.000000 -10.000000
v -10.000000 0.000000 -10.000000
v 10.000000 0.000000 10.000000
v -10.000000 0.000000 10.000000
vt 0.289291 0.782886
vt 0.360304 0.711873
vt 0.360304 0.782886
vt 0.144937 0.927240
vt 0.215950 0.856228
vt 0.215950 0.927240
vt 0.576836 0.856228
vt 0.505823 0.927240
vt 0.505823 0.856228
vt 0.855063 0.650178
vt 0.784050 0.721190
vt 0.784050 0.650178
vt 0.072760 0.782886
vt 0.143772 0.711873
vt 0.143772 0.782886
vt 0.855063 0.072760
vt 0.784050 0.143772
vt 0.784050 0.072760
vt 0.711873 0.649013
vt 0.782886 0.578000
vt 0.782886 0.649013
vt 0.855063 0.504659
vt 0.784050 0.433646
vt 0.855063 0.433646
vt 0.855063 0.000582
vt 0.784050 0.071595
vt 0.784050 0.000582
vt 0.784050 0.578000
vt 0.855063 0.649013
vt 0.784050 0.649013
vt 0.856228 0.360304
vt 0.927240 0.289291
vt 0.927240 0.360304
vt 0.782886 0.289291
vt 0.711873 0.360304
vt 0.711873 0.289291
vt 0.288127 0.782886
vt 0.217114 0.711873
vt 0.288127 0.711873
vt 0.072760 0.999418
vt 0.143772 0.928405
vt 0.143772 0.999418
vt 0.072760 0.784051
vt 0.143772 0.855063
vt 0.072760 0.855063
vt 0.288127 0.856228
vt 0.217114 0.927240
vt 0.217114 0.856228
vt 0.927240 0.721190
vt 0.856228 0.650178
vt 0.927240 0.650178
vt 0.288127 0.855063
vt 0.217114 0.784050
vt 0.288127 0.784050
vt 0.711873 0.215950
vt 0.782886 0.144937
vt 0.782886 0.215950
vt 0.649013 0.855063
vt 0.578000 0.784050
vt 0.649013 0.784050
vt 0.784050 0.289291
vt 0.855063 0.360304
vt 0.784050 0.360304
vt 0.784050 0.505823
vt 0.855063 0.576836
vt 0.784050 0.576836
vt 0.505823 0.782886
vt 0.576836 0.711873
vt 0.576836 0.782886
vt 0.927240 0.432481
vt 0.856228 0.361469
vt 0.927240 0.361469
vt 0.711873 0.143772
vt 0.782886 0.072760
vt 0.782886 0.143772
vt 0.361469 0.782886
vt 0.432481 0.711873
vt 0.432481 0.782886
vt 0.576836 0.784050
vt 0.505823 0.855063
vt 0.505823 0.784050
vt 0.784050 0.217114
vt 0.855063 0.288127
vt 0.784050 0.288127
vt 0.711873 0.937722
vt 0.782886 0.866709
vt 0.782886 0.937722
vt 0.784050 0.865545
vt 0.855063 0.794532
vt 0.855063 0.865545
vt 0.856228 0.937722
vt 0.927240 0.866709
vt 0.927240 0.937722
vt 0.782886 0.504659
vt 0.711873 0.433646
vt 0.782886 0.433646
vt 0.782886 0.722355
vt 0.711873 0.793367
vt 0.711873 0.722355
vt 0.144937 0.784051
vt 0.215950 0.855063
vt 0.144937 0.855063
vt 0.856228 0.215950
vt 0.927240 0.144937
vt 0.927240 0.215950
vt 0.927240 0.649013
vt 0.856228 0.578000
vt 0.927240 0.578000
vt 0.784050 0.937722
vt 0.855063 0.866709
vt 0.855063 0.937722
vt 0.578000 0.782886
vt 0.649013 0.711873
vt 0.649013 0.782886
vt 0.433646 0.856228
vt 0.504658 0.927240
vt 0.433646 0.927240
vt 0.784050 0.361469
vt 0.855063 0.432481
vt 0.784050 0.432481
vt 0.856228 0.865545
vt 0.927240 0.794532
vt 0.927240 0.865545
vt 0.504658 0.711873
vt 0.433646 0.782886
vt 0.433646 0.711873
vt 0.361469 0.856228
vt 0.432481 0.927240
vt 0.361469 0.927240
vt 0.649013 0.927240
vt 0.578000 0.856228
vt 0.649013 0.856228
vt 0.361469 0.855063
vt 0.432481 0.784050
vt 0.432481 0.855063
vt 0.784050 0.215950
vt 0.855063 0.144937
vt 0.855063 0.215950
vt 0.927240 0.217114
vt 0.856228 0.288127
vt 0.856228 0.217114
vt 0.000582 0.856228
vt 0.071595 0.927240
vt 0.000582 0.927240
vt 0.289291 0.856228
vt 0.360304 0.927240
vt 0.289291 0.927240
vt 0.927240 0.504659
vt 0.856228 0.433646
vt 0.927240 0.433646
vt 0.711873 0.721190
vt 0.782886 0.650178
vt 0.782886 0.721190
vt 0.855063 0.793367
vt 0.784050 0.722355
vt 0.855063 0.722355
vt 0.782886 0.217114
vt 0.711873 0.288127
vt 0.711873 0.217114
vt 0.856228 0.722355
vt 0.927240 0.793367
vt 0.856228 0.793367
vt 0.711873 0.794532
vt 0.782886 0.865545
vt 0.711873 0.865545
vt 0.071595 0.855063
vt 0.000582 0.784051
vt 0.071595 0.784051
vt 0.433646 0.855063
vt 0.504658 0.784050
vt 0.504658 0.855063
vt 0.711873 0.576836
vt 0.782886 0.505823
vt 0.782886 0.576836
vt 0.999417 0.144937
vt 0.928405 0.215950
vt 0.928405 0.144937
vt 0.999417 0.000582
vt 0.928405 0.071595
vt 0.928405 0.000582
vt 0.071595 0.928405
vt 0.000582 0.999418
vt 0.000582 0.928405
vt 0.927240 0.071595
vt 0.856228 0.000582
vt 0.927240 0.000582
vt 0.072760 0.927240
vt 0.143772 0.856228
vt 0.143772 0.927240
vt 0.144937 0.782886
vt 0.215950 0.711873
vt 0.215950 0.782886
vt 0.215950 0.928405
vt 0.144937 0.999418
vt 0.144937 0.928405
vt 0.999417 0.072760
vt 0.928405 0.143772
vt 0.928405 0.072760
vt 0.927240 0.505823
vt 0.856228 0.576836
vt 0.856228 0.505823
vt 0.711873 0.361469
vt 0.782886 0.432481
vt 0.711873 0.432481
vt 0.000582 0.782886
vt 0.071595 0.711873
vt 0.071595 0.782886
vt 0.360304 0.855063
vt 0.289291 0.784050
vt 0.360304 0.784050
vt 0.782886 0.000582
vt 0.711873 0.071595
vt 0.711873 0.000582
vt 0.856228 0.072760
vt 0.927240 0.143772
vt 0.856228 0.143772
vt 0.710708 0.710709
vt 0.000582 0.000582
vt 0.710708 0.000582
vt 0.289291 0.711873
vt 0.144937 0.856228
vt 0.576836 0.927240
vt 0.855063 0.721190
vt 0.072760 0.711873
vt 0.855063 0.143772
vt 0.711873 0.578000
vt 0.784050 0.504659
vt 0.855063 0.071595
vt 0.855063 0.578000
vt 0.856228 0.289291
vt 0.782886 0.360304
vt 0.217114 0.782886
vt 0.072760 0.928405
vt 0.143772 0.784051
vt 0.288127 0.927240
vt 0.856228 0.721190
vt 0.217114 0.855063
vt 0.711873 0.144937
vt 0.578000 0.855063
vt 0.855063 0.289291
vt 0.855063 0.505823
vt 0.505823 0.711873
vt 0.856228 0.432481
vt 0.711873 0.072760
vt 0.361469 0.711873
vt 0.576836 0.855063
vt 0.855063 0.217114
vt 0.711873 0.866709
vt 0.784050 0.794532
vt 0.856228 0.866709
vt 0.711873 0.504659
vt 0.782886 0.793367
vt 0.215950 0.784051
vt 0.856228 0.144937
vt 0.856228 0.649013
vt 0.784050 0.866709
vt 0.578000 0.711873
vt 0.504658 0.856228
vt 0.855063 0.361469
vt 0.856228 0.794532
vt 0.504658 0.782886
vt 0.432481 0.856228
vt 0.578000 0.927240
vt 0.361469 0.784050
vt 0.784050 0.144937
vt 0.927240 0.288127
vt 0.071595 0.856228
vt 0.360304 0.856228
vt 0.856228 0.504659
vt 0.711873 0.650178
vt 0.784050 0.793367
vt 0.782886 0.288127
vt 0.927240 0.722355
vt 0.782886 0.794532
vt 0.000582 0.855063
vt 0.433646 0.784050
vt 0.711873 0.505823
vt 0.999417 0.215950
vt 0.999417 0.071595
vt 0.071595 0.999418
vt 0.856228 0.071595
vt 0.072760 0.856228
vt 0.144937 0.711873
vt 0.215950 0.999418
vt 0.999417 0.143772
vt 0.927240 0.576836
vt 0.782886 0.361469
vt 0.000582 0.711873
vt 0.289291 0.855063
vt 0.782886 0.071595
vt 0.927240 0.072760
vt 0.000582 0.710708
vn 0.9258 0.3781 0.0000
vn 0.0000 0.0000 1.0000
vn -0.9258 -0.3781 -0.0000
vn -0.0000 0.0000 -1.0000
vn 0.3781 -0.9258 0.0000
vn -0.3781 0.9258 -0.0000
vn 0.8592 0.5116 0.0000
vn -0.8592 -0.5116 -0.0000
vn 0.5116 -0.8592 0.0000
vn -0.5116 0.8592 0.0000
vn 0.7692 0.6390 0.0000
vn -0.7692 -0.6390 -0.0000
vn 0.6390 -0.7692 0.0000
vn -0.6390 0.7692 -0.0000
vn 0.8220 0.5695 0.0000
vn -0.8220 -0.5695 -0.0000
vn 0.5695 -0.8220 0.0000
vn -0.5695 0.8220 0.0000
vn 0.8685 0.4957 0.0000
vn -0.8685 -0.4957 -0.0000
vn 0.4957 -0.8685 0.0000
vn -0.4957 0.8685 0.0000
vn 0.7106 0.7036 0.0000
vn -0.7106 -0.7036 -0.0000
vn 0.7036 -0.7106 0.0000
vn -0.7036 0.7106 -0.0000
vn -0.9084 0.4181 0.0000
vn 0.9084 -0.4181 0.0000
vn -0.4181 -0.9084 0.0000
vn 0.4181 0.9084 0.0000
vn -0.9414 0.3373 0.0000
vn 0.9414 -0.3373 0.0000
vn -0.3373 -0.9414 0.0000
vn 0.3373 0.9414 0.0000
vn -0.9966 0.0822 0.0000
vn 0.9966 -0.0822 0.0000
vn -0.0822 -0.9966 0.0000
vn 0.0822 0.9966 0.0000
vn -0.9857 0.1688 0.0000
vn 0.9857 -0.1688 0.0000
vn -0.1688 -0.9857 0.0000
vn 0.1688 0.9857 0.0000
vn -0.9672 0.2540 0.0000
vn 0.9672 -0.2540 0.0000
vn -0.2540 -0.9672 0.0000
vn 0.2540 0.9672 0.0000
vn 0.0000 1.0000 0.0000
usemtl Material
s off
f 6/1/1 1/2/1 5/3/1
f 7/4/2 2/5/2 6/6/2
f 8/7/3 3/8/3 7/9/3
f 8/10/4 1/11/4 4/12/4
f 2/13/5 4/14/5 1/15/5
f 8/16/6 6/17/6 5/18/6
f 14/19/7 9/20/7 13/21/7
f 14/22/2 11/23/2 10/24/2
f 16/25/8 11/26/8 15/27/8
f 13/28/4 12/29/4 16/30/4
f 10/31/9 12/32/9 9/33/9
f 16/34/10 14/35/10 13/36/10
f 21/37/11 18/38/11 17/39/11
f 23/40/2 18/41/2 22/42/2
f 24/43/12 19/44/12 23/45/12
f 24/46/4 17/47/4 20/48/4
f 17/49/13 19/50/13 20/51/13
f 23/52/14 21/53/14 24/54/14
f 30/55/15 25/56/15 29/57/15
f 30/58/2 27/59/2 26/60/2
f 32/61/16 27/62/16 31/63/16
f 29/64/4 28/65/4 32/66/4
f 26/67/17 28/68/17 25/69/17
f 31/70/18 29/71/18 32/72/18
f 38/73/19 33/74/19 37/75/19
f 39/76/2 34/77/2 38/78/2
f 40/79/20 35/80/20 39/81/20
f 37/82/4 36/83/4 40/84/4
f 34/85/21 36/86/21 33/87/21
f 39/88/22 37/89/22 40/90/22
f 46/91/23 41/92/23 45/93/23
f 46/94/2 43/95/2 42/96/2
f 48/97/24 43/98/24 47/99/24
f 45/100/4 44/101/4 48/102/4
f 42/103/25 44/104/25 41/105/25
f 47/106/26 45/107/26 48/108/26
f 54/109/23 49/110/23 53/111/23
f 55/112/2 50/113/2 54/114/2
f 56/115/24 51/116/24 55/117/24
f 53/118/4 52/119/4 56/120/4
f 50/121/25 52/122/25 49/123/25
f 56/124/26 54/125/26 53/126/26
f 62/127/27 57/128/27 61/129/27
f 63/130/4 58/131/4 62/132/4
f 64/133/28 59/134/28 63/135/28
f 61/136/2 60/137/2 64/138/2
f 58/139/29 60/140/29 57/141/29
f 63/142/30 61/143/30 64/144/30
f 70/145/31 65/146/31 69/147/31
f 71/148/4 66/149/4 70/150/4
f 72/151/32 67/152/32 71/153/32
f 72/154/2 65/155/2 68/156/2
f 66/157/33 68/158/33 65/159/33
f 71/160/34 69/161/34 72/162/34
f 78/163/35 73/164/35 77/165/35
f 79/166/4 74/167/4 78/168/4
f 80/169/36 75/170/36 79/171/36
f 77/172/2 76/173/2 80/174/2
f 74/175/37 76/176/37 73/177/37
f 79/178/38 77/179/38 80/180/38
f 86/181/39 81/182/39 85/183/39
f 87/184/4 82/185/4 86/186/4
f 88/187/40 83/188/40 87/189/40
f 85/190/2 84/191/2 88/192/2
f 82/193/41 84/194/41 81/195/41
f 87/196/42 85/197/42 88/198/42
f 94/199/43 89/200/43 93/201/43
f 95/202/4 90/203/4 94/204/4
f 96/205/44 91/206/44 95/207/44
f 96/208/2 89/209/2 92/210/2
f 90/211/45 92/212/45 89/213/45
f 95/214/46 93/215/46 96/216/46
f 98/217/47 99/218/47 97/219/47
f 6/1/1 2/220/1 1/2/1
f 7/4/2 3/221/2 2/5/2
f 8/7/3 4/222/3 3/8/3
f 8/10/4 5/223/4 1/11/4
f 2/13/5 3/224/5 4/14/5
f 8/16/6 7/225/6 6/17/6
f 14/19/7 10/226/7 9/20/7
f 14/22/2 15/227/2 11/23/2
f 16/25/8 12/228/8 11/26/8
f 13/28/4 9/229/4 12/29/4
f 10/31/9 11/230/9 12/32/9
f 16/34/10 15/231/10 14/35/10
f 21/37/11 22/232/11 18/38/11
f 23/40/2 19/233/2 18/41/2
f 24/43/12 20/234/12 19/44/12
f 24/46/4 21/235/4 17/47/4
f 17/49/13 18/236/13 19/50/13
f 23/52/14 22/237/14 21/53/14
f 30/55/15 26/238/15 25/56/15
f 30/58/2 31/239/2 27/59/2
f 32/61/16 28/240/16 27/62/16
f 29/64/4 25/241/4 28/65/4
f 26/67/17 27/242/17 28/68/17
f 31/70/18 30/243/18 29/71/18
f 38/73/19 34/244/19 33/74/19
f 39/76/2 35/245/2 34/77/2
f 40/79/20 36/246/20 35/80/20
f 37/82/4 33/247/4 36/83/4
f 34/85/21 35/248/21 36/86/21
f 39/88/22 38/249/22 37/89/22
f 46/91/23 42/250/23 41/92/23
f 46/94/2 47/251/2 43/95/2
f 48/97/24 44/252/24 43/98/24
f 45/100/4 41/253/4 44/101/4
f 42/103/25 43/254/25 44/104/25
f 47/106/26 46/255/26 45/107/26
f 54/109/23 50/256/23 49/110/23
f 55/112/2 51/257/2 50/113/2
f 56/115/24 52/258/24 51/116/24
f 53/118/4 49/259/4 52/119/4
f 50/121/25 51/260/25 52/122/25
f 56/124/26 55/261/26 54/125/26
f 62/127/27 58/262/27 57/128/27
f 63/130/4 59/263/4 58/131/4
f 64/133/28 60/264/28 59/134/28
f 61/136/2 57/265/2 60/137/2
f 58/139/29 59/266/29 60/140/29
f 63/142/30 62/267/30 61/143/30
f 70/145/31 66/268/31 65/146/31
f 71/148/4 67/269/4 66/149/4
f 72/151/32 68/270/32 67/152/32
f 72/154/2 69/271/2 65/155/2
f 66/157/33 67/272/33 68/158/33
f 71/160/34 70/273/34 69/161/34
f 78/163/35 74/274/35 73/164/35
f 79/166/4 75/275/4 74/167/4
f 80/169/36 76/276/36 75/170/36
f 77/172/2 73/277/2 76/173/2
f 74/175/37 75/278/37 76/176/37
f 79/178/38 78/279/38 77/179/38
f 86/181/39 82/280/39 81/182/39
f 87/184/4 83/281/4 82/185/4
f 88/187/40 84/282/40 83/188/40
f 85/190/2 81/283/2 84/191/2
f 82/193/41 83/284/41 84/194/41
f 87/196/42 86/285/42 85/197/42
f 94/199/43 90/286/43 89/200/43
f 95/202/4 91/287/4 90/203/4
f 96/205/44 92/288/44 91/206/44
f 96/208/2 93/289/2 89/209/2
f 90/211/45 91/290/45 92/212/45
f 95/214/46 94/291/46 93/215/46
f 98/217/47 100/292/47 99/218/47
